<?xml version="1.0" encoding="UTF-8" standalone="no"?>
<!DOCTYPE svg PUBLIC "-//W3C//DTD SVG 1.1//EN" "http://www.w3.org/Graphics/SVG/1.1/DTD/svg11.dtd">
<svg width="100%" height="100%" viewBox="0 0 200 200" version="1.1" xmlns="http://www.w3.org/2000/svg" xmlns:xlink="http://www.w3.org/1999/xlink" xml:space="preserve" xmlns:serif="http://www.serif.com/" style="fill-rule:evenodd;clip-rule:evenodd;stroke-linejoin:round;stroke-miterlimit:2;">
    <g transform="matrix(1,0,0,1,-215,-714)">
        <g id="Mobile" transform="matrix(1,0,0,1,-1110,714)">
            <rect x="1325" y="0" width="200" height="200" style="fill:none;"/>
            <g transform="matrix(1,0,0,1,1110,-713.5)">
                <path d="M349,734L276.598,734C270.197,734 265,739.197 265,745.598L265,898.402C265,904.803 270.197,910 276.598,910L353.402,910C359.803,910 365,904.803 365,898.402L365,745.598C365,745.472 364.998,745.346 364.994,745.221C364.998,745.147 365,745.074 365,745L365,721C365,718.792 363.208,717 361,717L353,717C350.792,717 349,718.792 349,721L349,734ZM349,751L281,751L281,801L349,801L349,751Z" style="fill:white;"/>
            </g>
        </g>
    </g>
</svg>
