<?xml version="1.0" encoding="UTF-8" standalone="no"?>
<!DOCTYPE svg PUBLIC "-//W3C//DTD SVG 1.1//EN" "http://www.w3.org/Graphics/SVG/1.1/DTD/svg11.dtd">
<svg width="100%" height="100%" viewBox="0 0 200 200" version="1.1" xmlns="http://www.w3.org/2000/svg" xmlns:xlink="http://www.w3.org/1999/xlink" xml:space="preserve" xmlns:serif="http://www.serif.com/" style="fill-rule:evenodd;clip-rule:evenodd;stroke-linejoin:round;stroke-miterlimit:2;">
    <g transform="matrix(1,0,0,1,-645,-476.388)">
        <g id="Mail" transform="matrix(1,0,0,1,-465,476.388)">
            <rect x="1110" y="0" width="200" height="200" style="fill:none;"/>
            <clipPath id="_clip1">
                <rect x="1110" y="0" width="200" height="200"/>
            </clipPath>
            <g clip-path="url(#_clip1)">
                <g transform="matrix(1,0,0,1,465,-476.388)">
                    <path d="M845,537.587C845,536.482 844.4,535.464 843.434,534.929C842.467,534.394 841.286,534.426 840.35,535.013C821.183,547.021 749.315,592.05 749.315,592.05C746.211,593.995 742.265,593.982 739.174,592.017C739.174,592.017 668.337,546.982 649.536,535.029C648.627,534.451 647.475,534.414 646.531,534.933C645.587,535.452 645,536.443 645,537.52C645,558.636 645,634.754 645,634.754C645,644.211 652.678,651.888 662.135,651.888L827.865,651.888C837.322,651.888 845,644.211 845,634.754L845,537.587ZM649.254,506.729C648.46,507.617 648.096,508.81 648.26,509.991C648.423,511.171 649.097,512.22 650.103,512.859C650.096,512.871 650.097,512.871 650.097,512.871C650.097,512.871 744.308,572.766 744.308,572.766L839.956,512.838C840.951,512.215 841.622,511.185 841.79,510.023C841.959,508.861 841.608,507.684 840.831,506.804C837.677,503.185 833.037,500.888 827.865,500.888L662.135,500.888C657.003,500.888 652.395,503.149 649.254,506.729Z" style="fill:white;"/>
                </g>
            </g>
        </g>
    </g>
</svg>
