<?xml version="1.0" encoding="UTF-8" standalone="no"?>
<!DOCTYPE svg PUBLIC "-//W3C//DTD SVG 1.1//EN" "http://www.w3.org/Graphics/SVG/1.1/DTD/svg11.dtd">
<svg width="100%" height="100%" viewBox="0 0 200 200" version="1.1" xmlns="http://www.w3.org/2000/svg" xmlns:xlink="http://www.w3.org/1999/xlink" xml:space="preserve" xmlns:serif="http://www.serif.com/" style="fill-rule:evenodd;clip-rule:evenodd;stroke-linejoin:round;stroke-miterlimit:2;">
    <g transform="matrix(1,0,0,1,-430,-714)">
        <g id="Bus" transform="matrix(1,0,0,1,-895,714)">
            <rect x="1325" y="0" width="200" height="200" style="fill:none;"/>
            <g>
                <g transform="matrix(4.79653e-17,-0.783333,1.22727,7.51488e-17,300.114,438.25)">
                    <path d="M493.358,842.295C494.445,841.717 495,841.111 495,840.5C495,839.041 491.839,837.642 486.213,836.611L443.787,836.611C438.161,837.642 435,839.041 435,840.5C435,841.111 435.555,841.717 436.642,842.295L493.358,842.295Z" style="fill:white;"/>
                </g>
                <g transform="matrix(-4.79653e-17,-0.783333,-1.22727,7.51488e-17,2549.89,436.25)">
                    <path d="M493.358,842.295C494.445,841.717 495,841.111 495,840.5C495,839.041 491.839,837.642 486.213,836.611L443.787,836.611C438.161,837.642 435,839.041 435,840.5C435,841.111 435.555,841.717 436.642,842.295L493.358,842.295Z" style="fill:white;"/>
                </g>
                <g transform="matrix(1,0,0,1,895,-714)">
                    <path d="M448.714,889.333C448.573,890.122 448.5,890.933 448.5,891.762L448.5,899.238C448.5,906.833 454.667,913 462.262,913L473.548,913C481.143,913 487.31,906.833 487.31,899.238L487.31,896L572.69,896L572.69,899.21C572.69,906.821 578.87,913 586.481,913L597.71,913C605.321,913 611.5,906.821 611.5,899.21L611.5,891.79C611.5,890.954 611.425,890.135 611.282,889.338C613.916,886.159 615.5,882.079 615.5,877.631L615.5,734.869C615.5,724.731 607.269,716.5 597.131,716.5L462.869,716.5C452.731,716.5 444.5,724.731 444.5,734.869L444.5,877.631C444.5,882.077 446.083,886.156 448.714,889.333ZM476.5,850C484.227,850 490.5,856.273 490.5,864C490.5,871.727 484.227,878 476.5,878C468.773,878 462.5,871.727 462.5,864C462.5,856.273 468.773,850 476.5,850ZM583.5,850C591.227,850 597.5,856.273 597.5,864C597.5,871.727 591.227,878 583.5,878C575.773,878 569.5,871.727 569.5,864C569.5,856.273 575.773,850 583.5,850ZM597,767.18C597,762.942 593.558,759.5 589.32,759.5L470.68,759.5C466.442,759.5 463,762.942 463,767.18L463,823.32C463,827.558 466.442,831 470.68,831L589.32,831C593.558,831 597,827.558 597,823.32L597,767.18ZM575,734.165C575,733.246 574.254,732.5 573.335,732.5L486.665,732.5C485.746,732.5 485,733.246 485,734.165L485,746.335C485,747.254 485.746,748 486.665,748L573.335,748C574.254,748 575,747.254 575,746.335L575,734.165Z" style="fill:white;"/>
                </g>
            </g>
        </g>
    </g>
</svg>
